<svg width="41" height="24" viewBox="0 0 41 24" fill="none" xmlns="http://www.w3.org/2000/svg">
<path d="M29.6255 0.898438C27.8618 0.898455 26.1237 1.31955 24.5556 2.12671C22.9875 2.93386 21.6347 4.10375 20.6099 5.53906C19.585 4.10375 18.2323 2.93386 16.6642 2.12671C15.0961 1.31955 13.3579 0.898455 11.5942 0.898438C10.1363 0.898232 8.69261 1.18524 7.34561 1.74308C5.99862 2.30091 4.77471 3.11864 3.74379 4.14955C2.71287 5.18047 1.89515 6.40438 1.33731 7.75137C0.779481 9.09837 0.492471 10.5421 0.492676 12C0.492471 13.4579 0.779481 14.9016 1.33731 16.2486C1.89515 17.5956 2.71287 18.8195 3.74379 19.8504C4.77471 20.8814 5.99862 21.6991 7.34561 22.2569C8.69261 22.8148 10.1363 23.1018 11.5942 23.1016C15.313 23.1016 18.5942 21.2656 20.6099 18.4609C21.6349 19.8961 22.9877 21.0658 24.5557 21.8729C26.1238 22.6801 27.8619 23.1013 29.6255 23.1016C32.5698 23.1016 35.3935 21.9319 37.4755 19.85C39.5574 17.768 40.7271 14.9443 40.7271 12C40.7271 9.05568 39.5574 6.23196 37.4755 4.15001C35.3935 2.06806 32.5698 0.898438 29.6255 0.898438ZM29.6255 21.0969C27.2139 21.0952 24.9015 20.1367 23.196 18.4317C21.4904 16.7268 20.5311 14.4147 20.5286 12.0031C20.5294 9.59085 21.4875 7.27749 23.1926 5.57102C24.8976 3.86455 27.2101 2.90446 29.6224 2.90156C32.0356 2.9028 34.3497 3.8619 36.0562 5.56817C37.7628 7.27443 38.7223 9.58833 38.7239 12.0016C38.7214 14.414 37.7618 16.7268 36.0557 18.4324C34.3495 20.1379 32.0363 21.0968 29.6239 21.0984L29.6255 21.0969Z" fill="#282B62"/>
</svg>
