<svg width="18" height="10" viewBox="0 0 18 10" fill="none" xmlns="http://www.w3.org/2000/svg">
<path d="M12.6063 0.559326C11.9008 0.559333 11.2055 0.727772 10.5783 1.05063C9.95104 1.3735 9.40994 1.84145 9 2.41558C8.59006 1.84145 8.04896 1.3735 7.42172 1.05063C6.79447 0.727772 6.09921 0.559333 5.39375 0.559326C4.81058 0.559244 4.2331 0.674048 3.6943 0.897181C3.1555 1.12031 2.66594 1.44741 2.25357 1.85977C1.8412 2.27214 1.51411 2.7617 1.29098 3.3005C1.06785 3.8393 0.953043 4.41678 0.953125 4.99995C0.953043 5.58313 1.06785 6.1606 1.29098 6.6994C1.51411 7.2382 1.8412 7.72776 2.25357 8.14013C2.66594 8.5525 3.1555 8.87959 3.6943 9.10272C4.2331 9.32585 4.81058 9.44066 5.39375 9.44058C6.88125 9.44058 8.19375 8.7062 9 7.58433C9.41002 8.15838 9.95113 8.62628 10.5784 8.94913C11.2056 9.27198 11.9008 9.44047 12.6063 9.44058C13.784 9.44058 14.9135 8.97273 15.7462 8.13995C16.579 7.30717 17.0469 6.17768 17.0469 4.99995C17.0469 3.82222 16.579 2.69273 15.7462 1.85995C14.9135 1.02718 13.784 0.559326 12.6063 0.559326ZM12.6063 8.6387C11.6416 8.63804 10.7167 8.25463 10.0344 7.57265C9.35222 6.89066 8.96849 5.96584 8.9675 5.0012C8.96783 4.03629 9.35107 3.11095 10.0331 2.42836C10.7151 1.74577 11.6401 1.36174 12.605 1.36058C13.5703 1.36107 14.4959 1.74471 15.1785 2.42722C15.8612 3.10972 16.245 4.03528 16.2456 5.00058C16.2446 5.96554 15.8608 6.89069 15.1783 7.57291C14.4959 8.25512 13.5706 8.63866 12.6056 8.63933L12.6063 8.6387Z" fill="white"/>
</svg>
