<svg width="100" height="100" viewBox="0 0 100 100" fill="none" xmlns="http://www.w3.org/2000/svg">
<path d="M83.7223 8.33344C83.7223 7.59673 83.4297 6.89019 82.9087 6.36926C82.3878 5.84832 81.6813 5.55566 80.9445 5.55566H19.8334C19.0967 5.55566 18.3902 5.84832 17.8693 6.36926C17.3483 6.89019 17.0557 7.59673 17.0557 8.33344V11.1112H83.7223V8.33344Z" fill="white"/>
<path d="M89.2221 19.4445C89.2221 18.7078 88.9295 18.0013 88.4085 17.4803C87.8876 16.9594 87.181 16.6667 86.4443 16.6667H14.2221C13.4854 16.6667 12.7789 16.9594 12.2579 17.4803C11.737 18.0013 11.4443 18.7078 11.4443 19.4445V22.2223H89.2221V19.4445Z" fill="white"/>
<path d="M89.2223 27.7778H10.7779C9.39287 27.7778 8.06457 28.328 7.08522 29.3074C6.10586 30.2867 5.55566 31.615 5.55566 33.0001V83.6667C5.55566 85.0517 6.10586 86.38 7.08522 87.3594C8.06457 88.3387 9.39287 88.8889 10.7779 88.8889H89.2223C90.6073 88.8889 91.9356 88.3387 92.915 87.3594C93.8943 86.38 94.4445 85.0517 94.4445 83.6667V33.0001C94.4445 31.615 93.8943 30.2867 92.915 29.3074C91.9356 28.328 90.6073 27.7778 89.2223 27.7778ZM23.7779 37.3612C25.4261 37.3612 27.0372 37.8499 28.4076 38.7656C29.778 39.6813 30.8462 40.9828 31.4769 42.5055C32.1076 44.0282 32.2726 45.7037 31.9511 47.3202C31.6296 48.9368 30.8359 50.4216 29.6704 51.5871C28.505 52.7525 27.0201 53.5462 25.4036 53.8677C23.7871 54.1892 22.1116 54.0242 20.5889 53.3935C19.0661 52.7628 17.7647 51.6947 16.849 50.3242C15.9333 48.9538 15.4446 47.3427 15.4446 45.6945C15.4446 43.4844 16.3225 41.3647 17.8853 39.8019C19.4481 38.2391 21.5677 37.3612 23.7779 37.3612ZM83.3334 77.7778H16.6668L37.389 57.0278C37.7584 56.6614 38.2576 56.4558 38.7779 56.4558C39.2982 56.4558 39.7974 56.6614 40.1668 57.0278L50.389 67.25L64.4723 52.7778C64.8417 52.4114 65.3409 52.2058 65.8612 52.2058C66.3815 52.2058 66.8807 52.4114 67.2501 52.7778L83.3334 68.8612V77.7778Z" fill="white"/>
</svg>
