<svg width="42" height="24" viewBox="0 0 42 24" fill="none" xmlns="http://www.w3.org/2000/svg">
<path d="M30.0156 0.898438C28.252 0.898455 26.5138 1.31955 24.9457 2.12671C23.3776 2.93386 22.0249 4.10375 21 5.53906C19.9751 4.10375 18.6224 2.93386 17.0543 2.12671C15.4862 1.31955 13.748 0.898455 11.9844 0.898438C10.5264 0.898232 9.08274 1.18524 7.73575 1.74308C6.38875 2.30091 5.16484 3.11864 4.13393 4.14955C3.10301 5.18047 2.28528 6.40438 1.72745 7.75137C1.16962 9.09837 0.882607 10.5421 0.882813 12C0.882607 13.4579 1.16962 14.9016 1.72745 16.2486C2.28528 17.5956 3.10301 18.8195 4.13393 19.8504C5.16484 20.8814 6.38875 21.6991 7.73575 22.2569C9.08274 22.8148 10.5264 23.1018 11.9844 23.1016C15.7031 23.1016 18.9844 21.2656 21 18.4609C22.025 19.8961 23.3778 21.0658 24.9459 21.8729C26.514 22.6801 28.252 23.1013 30.0156 23.1016C32.9599 23.1016 35.7837 21.9319 37.8656 19.85C39.9476 17.768 41.1172 14.9443 41.1172 12C41.1172 9.05568 39.9476 6.23196 37.8656 4.15001C35.7837 2.06806 32.9599 0.898438 30.0156 0.898438ZM30.0156 21.0969C27.604 21.0952 25.2916 20.1367 23.5861 18.4317C21.8805 16.7268 20.9212 14.4147 20.9188 12.0031C20.9196 9.59085 21.8777 7.27749 23.5827 5.57102C25.2877 3.86455 27.6002 2.90446 30.0125 2.90156C32.4257 2.9028 34.7398 3.8619 36.4464 5.56817C38.1529 7.27443 39.1124 9.58833 39.1141 12.0016C39.1116 14.414 38.1519 16.7268 36.4458 18.4324C34.7397 20.1379 32.4265 21.0968 30.0141 21.0984L30.0156 21.0969Z" fill="#282B62"/>
</svg>
