<svg width="50" height="50" viewBox="0 0 50 50" fill="none" xmlns="http://www.w3.org/2000/svg">
<path d="M33.3334 25V24.9979C33.3333 23.07 32.6648 21.2018 31.4417 19.7115C30.2187 18.2213 28.5167 17.2012 26.6259 16.825C24.735 16.4489 22.7723 16.74 21.072 17.6487C19.3717 18.5575 18.0391 20.0277 17.3012 21.8087C16.5633 23.5898 16.4658 25.5717 17.0253 27.4166C17.5848 29.2615 18.7667 30.8554 20.3696 31.9266C21.9724 32.9979 23.8972 33.4802 25.8158 33.2915C27.7344 33.1028 29.5283 32.2547 30.8917 30.8917C31.6653 30.1438 32.2802 29.2478 32.6997 28.257C33.1193 27.2662 33.3348 26.201 33.3334 25.125L33.3313 24.9937V25H33.3334ZM37.8334 25C37.8234 27.9551 36.7897 30.8155 34.9082 33.0943C33.0267 35.3731 30.4138 36.9295 27.514 37.4987C24.6142 38.0679 21.6067 37.6146 19.0035 36.2161C16.4002 34.8176 14.362 32.5602 13.2357 29.8281C12.1094 27.096 11.9646 24.0581 12.8259 21.2313C13.6873 18.4044 15.5016 15.9634 17.9601 14.3237C20.4185 12.6839 23.3692 11.9467 26.31 12.2375C29.2508 12.5283 32 13.8292 34.0896 15.9187C35.2763 17.0702 36.2194 18.4485 36.8629 19.9717C37.5064 21.4949 37.8371 23.1319 37.8354 24.7854L37.8334 25.0125V25.0021V25ZM41.348 11.6542V11.6583C41.3482 12.3524 41.1077 13.0251 40.6676 13.5618C40.2274 14.0984 39.6148 14.4659 38.9341 14.6015C38.2534 14.7371 37.5467 14.6325 36.9345 14.3055C36.3223 13.9785 35.8424 13.4493 35.5766 12.8081C35.3108 12.167 35.2756 11.4535 35.4769 10.7892C35.6782 10.125 36.1036 9.55107 36.6806 9.16532C37.2576 8.77956 37.9505 8.60582 38.6413 8.67368C39.332 8.74155 39.9779 9.04682 40.4688 9.5375C41.0021 10.0604 41.3334 10.7896 41.3334 11.5958V11.6562V11.6542H41.348ZM25.0146 4.4875L22.525 4.47083C21.0167 4.45972 19.8716 4.45972 19.0896 4.47083C18.3077 4.48194 17.2605 4.51458 15.948 4.56875C14.7292 4.61042 13.573 4.73125 12.4417 4.92292L12.5938 4.90208C11.7084 5.04792 10.923 5.25625 10.1709 5.53333L10.2605 5.50417C9.19796 5.93128 8.23176 6.56683 7.41882 7.37332C6.60588 8.17982 5.96267 9.14094 5.52712 10.2L5.50628 10.2562C5.23888 10.9882 5.04078 11.7436 4.91462 12.5125L4.9042 12.5896C4.7189 13.6843 4.60823 14.7903 4.57295 15.9L4.57087 15.9437C4.5167 17.2576 4.48406 18.3049 4.47295 19.0854C4.46184 19.866 4.46184 21.0111 4.47295 22.5208C4.48406 24.0306 4.48962 24.8604 4.48962 25.0104C4.48962 25.1604 4.48406 25.9903 4.47295 27.5C4.46184 29.0097 4.46184 30.1549 4.47295 30.9354C4.48406 31.716 4.5167 32.7632 4.57087 34.0771C4.61253 35.2958 4.73337 36.4521 4.92503 37.5833L4.9042 37.4312C5.05003 38.3167 5.25837 39.1021 5.53545 39.8542L5.50628 39.7646C5.9334 40.8271 6.56894 41.7933 7.37544 42.6062C8.18194 43.4192 9.14306 44.0624 10.2021 44.4979L10.2584 44.5187C10.9209 44.7667 11.7063 44.975 12.5146 45.1104L12.5917 45.1208C13.5688 45.2917 14.725 45.4125 15.9 45.4521L15.9438 45.4542C17.2577 45.5083 18.3049 45.541 19.0855 45.5521C19.866 45.5632 21.0111 45.5632 22.5209 45.5521L24.9959 45.5021L27.4855 45.5187C28.9938 45.5299 30.1389 45.5299 30.9209 45.5187C31.7028 45.5076 32.75 45.475 34.0625 45.4208C35.2813 45.3792 36.4375 45.2583 37.5688 45.0667L37.4167 45.0875C38.3021 44.9417 39.0875 44.7333 39.8396 44.4562L39.75 44.4854C40.8125 44.0583 41.7787 43.4228 42.5917 42.6163C43.4046 41.8098 44.0478 40.8486 44.4834 39.7896L44.5042 39.7333C44.7521 39.0708 44.9605 38.2854 45.0959 37.4771L45.1063 37.4C45.2771 36.4229 45.3979 35.2667 45.4375 34.0917L45.4396 34.0479C45.4938 32.734 45.5264 31.6868 45.5375 30.9062C45.5486 30.1257 45.5486 28.9806 45.5375 27.4708C45.5264 25.9611 45.5209 25.1312 45.5209 24.9812C45.5209 24.8312 45.5264 24.0014 45.5375 22.4917C45.5486 20.9819 45.5486 19.8368 45.5375 19.0562C45.5264 18.2757 45.4938 17.2285 45.4396 15.9146C45.398 14.6958 45.2771 13.5396 45.0855 12.4083L45.1063 12.5604C44.9741 11.7344 44.7627 10.923 44.475 10.1375L44.5042 10.2271C44.0771 9.16459 43.4415 8.19839 42.635 7.38545C41.8285 6.57251 40.8674 5.9293 39.8084 5.49375L39.7521 5.47292C39.0202 5.20551 38.2648 5.00742 37.4959 4.88125L37.4188 4.87083C36.3248 4.68563 35.2195 4.57496 34.1105 4.53958L34.0667 4.5375C32.7528 4.48333 31.7056 4.4507 30.925 4.43958C30.1445 4.42847 28.9993 4.42847 27.4896 4.43958L25.0146 4.4875ZM50 25C50 29.9694 49.9445 33.409 49.8334 35.3187C49.9318 37.2541 49.6226 39.1886 48.9256 40.9968C48.2287 42.805 47.1596 44.4466 45.7876 45.8153C44.4157 47.1839 42.7715 48.249 40.9616 48.9415C39.1516 49.6341 37.2164 49.9386 35.2813 49.8354L35.3146 49.8375C33.4049 49.9486 29.9653 50.0042 24.9959 50.0042C20.0264 50.0042 16.5868 49.9486 14.6771 49.8375C12.7417 49.936 10.8073 49.6267 8.99905 48.9298C7.19083 48.2328 5.54922 47.1637 4.1806 45.7918C2.81198 44.4198 1.74689 42.7756 1.05435 40.9657C0.361801 39.1558 0.0572573 37.2205 0.160449 35.2854L0.158366 35.3187C0.0472548 33.409 -0.00830078 29.9694 -0.00830078 25C-0.00830078 20.0306 0.0472548 16.591 0.158366 14.6812C0.0598897 12.7459 0.369148 10.8114 1.0661 9.00318C1.76305 7.19496 2.83215 5.55336 4.20411 4.18474C5.57607 2.81612 7.22027 1.75103 9.03018 1.05848C10.8401 0.365936 12.7753 0.0613925 14.7105 0.164584L14.6771 0.162501C16.5868 0.0513899 20.0264 -0.00416565 24.9959 -0.00416565C29.9653 -0.00416565 33.4049 0.0513899 35.3146 0.162501C37.25 0.0640249 39.1845 0.373284 40.9927 1.07024C42.8009 1.76719 44.4425 2.83628 45.8111 4.20824C47.1798 5.5802 48.2448 7.22441 48.9374 9.03432C49.6299 10.8442 49.9345 12.7794 49.8313 14.7146L49.8334 14.6812C49.9445 16.5896 50 20.0292 50 25Z" fill="#282B62"/>
</svg>
