<svg width="43" height="50" viewBox="0 0 43 50" fill="none" xmlns="http://www.w3.org/2000/svg">
<path d="M27.1807 34.7098V40.5971C27.1807 41.8434 26.8169 42.4665 26.0894 42.4665C25.6603 42.4665 25.2406 42.2619 24.8301 41.8527V33.4542C25.2406 33.045 25.6603 32.8404 26.0894 32.8404C26.8169 32.8404 27.1807 33.4635 27.1807 34.7098ZM36.639 34.7377V36.0212H34.1205V34.7377C34.1205 33.4728 34.5403 32.8404 35.3798 32.8404C36.2193 32.8404 36.639 33.4728 36.639 34.7377ZM9.60732 28.6551H12.6015V26.0324H3.87078V28.6551H6.809V44.5312H9.60732V28.6551ZM17.6665 44.5312H20.157V30.7478H17.6665V41.2946C17.1068 42.0759 16.5751 42.4665 16.0714 42.4665C15.7356 42.4665 15.5397 42.2712 15.4838 41.8806C15.4651 41.8248 15.4558 41.4993 15.4558 40.904V30.7478H12.9653V41.6574C12.9653 42.5688 13.0399 43.2478 13.1892 43.6942C13.413 44.3824 13.954 44.7266 14.8122 44.7266C15.7076 44.7266 16.6591 44.1592 17.6665 43.0246V44.5312ZM29.6712 40.4018V34.9051C29.6712 33.5472 29.5873 32.6265 29.4194 32.1429C29.1022 31.1012 28.44 30.5804 27.4326 30.5804C26.4998 30.5804 25.6323 31.0826 24.8301 32.0871V26.0324H22.3396V44.5312H24.8301V43.192C25.6696 44.215 26.5371 44.7266 27.4326 44.7266C28.44 44.7266 29.1022 44.215 29.4194 43.192C29.5873 42.6897 29.6712 41.7597 29.6712 40.4018ZM39.1295 40.1228V39.76H36.5831C36.5831 40.7087 36.5644 41.276 36.5271 41.4621C36.3965 42.1317 36.0234 42.4665 35.4078 42.4665C34.5496 42.4665 34.1205 41.8248 34.1205 40.5413V38.1138H39.1295V35.24C39.1295 33.7705 38.8777 32.6916 38.374 32.0033C37.6464 31.0547 36.6577 30.5804 35.4078 30.5804C34.1392 30.5804 33.1411 31.0547 32.4136 32.0033C31.8912 32.6916 31.63 33.7705 31.63 35.24V40.067C31.63 41.5365 31.9005 42.6153 32.4416 43.3036C33.1691 44.2522 34.1765 44.7266 35.4637 44.7266C36.8069 44.7266 37.8143 44.2336 38.4859 43.2478C38.8217 42.7455 39.0176 42.2433 39.0736 41.7411C39.1109 41.5737 39.1295 41.0342 39.1295 40.1228ZM22.1158 14.6484V8.78906C22.1158 7.50558 21.7147 6.86384 20.9125 6.86384C20.1103 6.86384 19.7092 7.50558 19.7092 8.78906V14.6484C19.7092 15.9505 20.1103 16.6016 20.9125 16.6016C21.7147 16.6016 22.1158 15.9505 22.1158 14.6484ZM42.2356 35.6027C42.2356 39.9554 41.9931 43.2106 41.5081 45.3683C41.2469 46.4658 40.7059 47.3865 39.8851 48.1306C39.0642 48.8746 38.1128 49.3025 37.0308 49.4141C33.5982 49.8047 28.4213 50 21.5001 50C14.579 50 9.40211 49.8047 5.96951 49.4141C4.8875 49.3025 3.93141 48.8746 3.10124 48.1306C2.27107 47.3865 1.73473 46.4658 1.49221 45.3683C1.00717 43.285 0.764648 40.0298 0.764648 35.6027C0.764648 31.25 1.00717 27.9948 1.49221 25.8371C1.75339 24.7396 2.29439 23.8188 3.11523 23.0748C3.93607 22.3307 4.89682 21.8936 5.99749 21.7634C9.41144 21.3914 14.579 21.2054 21.5001 21.2054C28.4213 21.2054 33.5982 21.3914 37.0308 21.7634C38.1128 21.8936 39.0689 22.3307 39.8991 23.0748C40.7292 23.8188 41.2656 24.7396 41.5081 25.8371C41.9931 27.9204 42.2356 31.1756 42.2356 35.6027ZM14.3085 0H17.1628L13.7768 11.1328V18.6942H10.9785V11.1328C10.7173 9.75632 10.1483 7.7846 9.27152 5.21763C8.58127 3.30171 7.97497 1.5625 7.45262 0H10.4188L12.4056 7.33817L14.3085 0ZM24.6622 9.29129V14.1741C24.6622 15.6808 24.4011 16.7783 23.8787 17.4665C23.1698 18.4152 22.1811 18.8895 20.9125 18.8895C19.6626 18.8895 18.6832 18.4152 17.9743 17.4665C17.4519 16.7597 17.1907 15.6622 17.1907 14.1741V9.29129C17.1907 7.8032 17.4519 6.71503 17.9743 6.02679C18.6832 5.07812 19.6626 4.60379 20.9125 4.60379C22.1811 4.60379 23.1698 5.07812 23.8787 6.02679C24.4011 6.71503 24.6622 7.8032 24.6622 9.29129ZM34.0366 4.77121V18.6942H31.4901V17.1596C30.5014 18.3129 29.5406 18.8895 28.6079 18.8895C27.7497 18.8895 27.1994 18.5454 26.9569 17.8571C26.8076 17.4107 26.733 16.7132 26.733 15.7645V4.77121H29.2795V15.0112C29.2795 15.625 29.2888 15.9505 29.3074 15.9877C29.3634 16.3969 29.5593 16.6016 29.8951 16.6016C30.3988 16.6016 30.9305 16.2016 31.4901 15.4018V4.77121H34.0366Z" fill="#282B62"/>
</svg>
