<svg width="20" height="20" viewBox="0 0 20 20" fill="none" xmlns="http://www.w3.org/2000/svg">
<path d="M13.3334 9.99996V9.99912C13.3333 9.22797 13.0659 8.48067 12.5767 7.88457C12.0875 7.28846 11.4067 6.88042 10.6504 6.72997C9.89403 6.57951 9.10893 6.69596 8.42881 7.05946C7.7487 7.42295 7.21566 8.01102 6.92051 8.72346C6.62536 9.4359 6.58636 10.2286 6.81016 10.9666C7.03395 11.7046 7.5067 12.3421 8.14785 12.7706C8.789 13.1991 9.55888 13.3921 10.3263 13.3166C11.0938 13.2411 11.8113 12.9018 12.3567 12.3566C12.6661 12.0575 12.9121 11.6991 13.0799 11.3027C13.2477 10.9064 13.3339 10.4803 13.3334 10.05L13.3325 9.99746V9.99996H13.3334ZM15.1334 9.99996C15.1294 11.182 14.7159 12.3261 13.9633 13.2377C13.2107 14.1492 12.1655 14.7718 11.0056 14.9994C9.84569 15.2271 8.64271 15.0458 7.6014 14.4864C6.5601 13.927 5.74481 13.024 5.29429 11.9312C4.84377 10.8384 4.78586 9.62319 5.1304 8.49246C5.47495 7.36173 6.20066 6.38533 7.18405 5.72943C8.16743 5.07352 9.34771 4.77864 10.524 4.89497C11.7003 5.0113 12.8 5.53164 13.6359 6.36746C14.1105 6.82805 14.4878 7.37937 14.7452 7.98864C15.0026 8.59792 15.1349 9.25271 15.1342 9.91412L15.1334 10.005V10.0008V9.99996ZM16.5392 4.66162V4.66329C16.5393 4.94092 16.4431 5.21 16.2671 5.42466C16.091 5.63933 15.8459 5.78631 15.5737 5.84055C15.3014 5.8948 15.0187 5.85295 14.7738 5.72215C14.5289 5.59135 14.337 5.37968 14.2307 5.12321C14.1244 4.86674 14.1103 4.58134 14.1908 4.31564C14.2713 4.04995 14.4415 3.82039 14.6723 3.66609C14.9031 3.51178 15.1802 3.44228 15.4565 3.46943C15.7328 3.49658 15.9912 3.61869 16.1875 3.81496C16.4009 4.02412 16.5334 4.31579 16.5334 4.63829V4.66246V4.66162H16.5392ZM10.0059 1.79496L9.01004 1.78829C8.4067 1.78385 7.94865 1.78385 7.63587 1.78829C7.32309 1.79274 6.9042 1.80579 6.3792 1.82746C5.8917 1.84412 5.4292 1.89246 4.9767 1.96912L5.03754 1.96079C4.68337 2.01912 4.3692 2.10246 4.06837 2.21329L4.1042 2.20162C3.67921 2.37247 3.29273 2.62669 2.96755 2.94929C2.64238 3.27189 2.38509 3.65633 2.21087 4.07996L2.20254 4.10246C2.09557 4.39522 2.01634 4.69738 1.96587 5.00496L1.9617 5.03579C1.88759 5.47367 1.84332 5.91608 1.8292 6.35996L1.82837 6.37746C1.8067 6.90301 1.79365 7.3219 1.7892 7.63412C1.78476 7.94635 1.78476 8.4044 1.7892 9.00829C1.79365 9.61218 1.79587 9.94412 1.79587 10.0041C1.79587 10.0641 1.79365 10.3961 1.7892 11C1.78476 11.6038 1.78476 12.0619 1.7892 12.3741C1.79365 12.6863 1.8067 13.1052 1.82837 13.6308C1.84504 14.1183 1.89337 14.5808 1.97004 15.0333L1.9617 14.9725C2.02004 15.3266 2.10337 15.6408 2.2142 15.9416L2.20254 15.9058C2.37338 16.3308 2.6276 16.7173 2.9502 17.0424C3.2728 17.3676 3.65725 17.6249 4.08087 17.7991L4.10337 17.8075C4.36837 17.9066 4.68254 17.99 5.00587 18.0441L5.0367 18.0483C5.42754 18.1166 5.89004 18.165 6.36004 18.1808L6.37754 18.1816C6.90309 18.2033 7.32198 18.2163 7.6342 18.2208C7.94643 18.2252 8.40448 18.2252 9.00837 18.2208L9.99837 18.2008L10.9942 18.2075C11.5975 18.2119 12.0556 18.2119 12.3684 18.2075C12.6811 18.203 13.1 18.19 13.625 18.1683C14.1125 18.1516 14.575 18.1033 15.0275 18.0266L14.9667 18.035C15.3209 17.9766 15.635 17.8933 15.9359 17.7825L15.9 17.7941C16.325 17.6233 16.7115 17.3691 17.0367 17.0465C17.3619 16.7239 17.6192 16.3394 17.7934 15.9158L17.8017 15.8933C17.9009 15.6283 17.9842 15.3141 18.0384 14.9908L18.0425 14.96C18.1109 14.5691 18.1592 14.1066 18.175 13.6366L18.1759 13.6191C18.1975 13.0936 18.2106 12.6747 18.215 12.3625C18.2195 12.0502 18.2195 11.5922 18.215 10.9883C18.2106 10.3844 18.2084 10.0525 18.2084 9.99246C18.2084 9.93246 18.2106 9.60051 18.215 8.99662C18.2195 8.39273 18.2195 7.93468 18.215 7.62246C18.2106 7.31024 18.1975 6.89135 18.1759 6.36579C18.1592 5.87829 18.1109 5.41579 18.0342 4.96329L18.0425 5.02412C17.9897 4.69371 17.9051 4.36916 17.79 4.05496L17.8017 4.09079C17.6309 3.6658 17.3766 3.27931 17.054 2.95414C16.7314 2.62896 16.347 2.37168 15.9234 2.19746L15.9009 2.18912C15.6081 2.08216 15.3059 2.00292 14.9984 1.95246L14.9675 1.94829C14.5299 1.87421 14.0878 1.82994 13.6442 1.81579L13.6267 1.81496C13.1011 1.79329 12.6823 1.78024 12.37 1.77579C12.0578 1.77135 11.5998 1.77135 10.9959 1.77579L10.0059 1.79496ZM20 9.99996C20 11.9877 19.9778 13.3636 19.9334 14.1275C19.9728 14.9016 19.8491 15.6754 19.5703 16.3987C19.2915 17.122 18.8639 17.7786 18.3151 18.3261C17.7663 18.8735 17.1086 19.2995 16.3846 19.5766C15.6607 19.8536 14.8866 19.9754 14.1125 19.9341L14.1259 19.935C13.362 19.9794 11.9861 20.0016 9.99837 20.0016C8.01059 20.0016 6.63476 19.9794 5.87087 19.935C5.09672 19.9743 4.32293 19.8506 3.59964 19.5719C2.87636 19.2931 2.21971 18.8654 1.67227 18.3167C1.12482 17.7679 0.698781 17.1102 0.421763 16.3862C0.144745 15.6623 0.0229273 14.8882 0.0642041 14.1141L0.0633708 14.1275C0.0189263 13.3636 -0.0032959 11.9877 -0.0032959 9.99996C-0.0032959 8.01218 0.0189263 6.63635 0.0633708 5.87246C0.0239803 5.09831 0.147684 4.32452 0.426465 3.60123C0.705246 2.87794 1.13288 2.2213 1.68167 1.67385C2.23045 1.1264 2.88813 0.700367 3.6121 0.42335C4.33606 0.146332 5.11015 0.0245143 5.8842 0.065791L5.87087 0.0649577C6.63476 0.0205132 8.01059 -0.00170898 9.99837 -0.00170898C11.9861 -0.00170898 13.362 0.0205132 14.1259 0.0649577C14.9 0.0255672 15.6738 0.149271 16.3971 0.428052C17.1204 0.706833 17.777 1.13447 18.3245 1.68325C18.8719 2.23204 19.298 2.88972 19.575 3.61368C19.852 4.33765 19.9738 5.11174 19.9325 5.88579L19.9334 5.87246C19.9778 6.63579 20 8.01162 20 9.99996Z" fill="white"/>
</svg>
