<svg width="51" height="50" viewBox="0 0 51 50" fill="none" xmlns="http://www.w3.org/2000/svg">
<path d="M33.7236 25V24.9979C33.7236 23.07 33.055 21.2018 31.832 19.7115C30.6089 18.2213 28.907 17.2012 27.0161 16.825C25.1253 16.4489 23.1625 16.74 21.4622 17.6488C19.762 18.5575 18.4294 20.0277 17.6915 21.8088C16.9536 23.5899 16.8561 25.5717 17.4156 27.4166C17.9751 29.2616 19.1569 30.8554 20.7598 31.9267C22.3627 32.9979 24.2874 33.4803 26.206 33.2915C28.1247 33.1028 29.9185 32.2547 31.282 30.8917C32.0556 30.1439 32.6705 29.2478 33.09 28.257C33.5095 27.2662 33.725 26.201 33.7236 25.125L33.7215 24.9938V25H33.7236ZM38.2236 25C38.2136 27.9551 37.1799 30.8155 35.2985 33.0943C33.417 35.3731 30.804 36.9295 27.9042 37.4987C25.0044 38.0679 21.997 37.6146 19.3937 36.2161C16.7904 34.8176 14.7522 32.5602 13.6259 29.8281C12.4996 27.096 12.3548 24.0581 13.2162 21.2313C14.0776 18.4045 15.8919 15.9635 18.3503 14.3237C20.8088 12.6839 23.7595 11.9467 26.7003 12.2375C29.6411 12.5284 32.3902 13.8292 34.4799 15.9188C35.6666 17.0703 36.6097 18.4485 37.2532 19.9717C37.8966 21.4949 38.2274 23.1319 38.2257 24.7854L38.2236 25.0125V25.0021V25ZM41.7382 11.6542V11.6583C41.7384 12.3524 41.498 13.0251 41.0578 13.5618C40.6177 14.0984 40.0051 14.4659 39.3244 14.6015C38.6437 14.7371 37.937 14.6325 37.3248 14.3055C36.7126 13.9785 36.2327 13.4493 35.9669 12.8081C35.7011 12.167 35.6659 11.4535 35.8672 10.7892C36.0685 10.125 36.4939 9.55109 37.0709 9.16534C37.6479 8.77958 38.3408 8.60583 39.0315 8.6737C39.7223 8.74156 40.3681 9.04684 40.859 9.53751C41.3924 10.0604 41.7236 10.7896 41.7236 11.5958V11.6563V11.6542H41.7382ZM25.4049 4.48752L22.9153 4.47085C21.407 4.45974 20.2618 4.45974 19.4799 4.47085C18.6979 4.48196 17.6507 4.5146 16.3382 4.56877C15.1195 4.61043 13.9632 4.73127 12.832 4.92293L12.984 4.9021C12.0986 5.04793 11.3132 5.25627 10.5611 5.53335L10.6507 5.50418C9.58822 5.93129 8.62201 6.56684 7.80908 7.37334C6.99614 8.17984 6.35293 9.14096 5.91738 10.2L5.89654 10.2563C5.62913 10.9882 5.43104 11.7436 5.30487 12.5125L5.29446 12.5896C5.10916 13.6843 4.99849 14.7903 4.96321 15.9L4.96112 15.9438C4.90696 17.2577 4.87432 18.3049 4.86321 19.0854C4.8521 19.866 4.8521 21.0111 4.86321 22.5208C4.87432 24.0306 4.87987 24.8604 4.87987 25.0104C4.87987 25.1604 4.87432 25.9903 4.86321 27.5C4.8521 29.0097 4.8521 30.1549 4.86321 30.9354C4.87432 31.716 4.90696 32.7632 4.96112 34.0771C5.00279 35.2958 5.12363 36.4521 5.31529 37.5833L5.29446 37.4313C5.44029 38.3167 5.64862 39.1021 5.92571 39.8542L5.89654 39.7646C6.32365 40.8271 6.9592 41.7933 7.7657 42.6062C8.5722 43.4192 9.53332 44.0624 10.5924 44.4979L10.6486 44.5188C11.3111 44.7667 12.0965 44.975 12.9049 45.1104L12.982 45.1208C13.959 45.2917 15.1153 45.4125 16.2903 45.4521L16.334 45.4542C17.6479 45.5083 18.6952 45.541 19.4757 45.5521C20.2563 45.5632 21.4014 45.5632 22.9111 45.5521L25.3861 45.5021L27.8757 45.5188C29.384 45.5299 30.5292 45.5299 31.3111 45.5188C32.0931 45.5077 33.1403 45.475 34.4528 45.4208C35.6715 45.3792 36.8278 45.2583 37.959 45.0667L37.807 45.0875C38.6924 44.9417 39.4778 44.7333 40.2299 44.4563L40.1403 44.4854C41.2028 44.0583 42.169 43.4228 42.9819 42.6163C43.7949 41.8098 44.4381 40.8487 44.8736 39.7896L44.8945 39.7333C45.1424 39.0708 45.3507 38.2854 45.4861 37.4771L45.4965 37.4C45.6674 36.4229 45.7882 35.2667 45.8278 34.0917L45.8299 34.0479C45.884 32.734 45.9167 31.6868 45.9278 30.9063C45.9389 30.1257 45.9389 28.9806 45.9278 27.4708C45.9167 25.9611 45.9111 25.1313 45.9111 24.9813C45.9111 24.8313 45.9167 24.0014 45.9278 22.4917C45.9389 20.982 45.9389 19.8368 45.9278 19.0563C45.9167 18.2757 45.884 17.2285 45.8299 15.9146C45.7882 14.6958 45.6674 13.5396 45.4757 12.4083L45.4965 12.5604C45.3644 11.7344 45.153 10.923 44.8653 10.1375L44.8945 10.2271C44.4673 9.16461 43.8318 8.1984 43.0253 7.38547C42.2188 6.57253 41.2577 5.92932 40.1986 5.49377L40.1424 5.47293C39.4105 5.20553 38.6551 5.00743 37.8861 4.88127L37.809 4.87085C36.715 4.68565 35.6097 4.57497 34.5007 4.5396L34.457 4.53752C33.1431 4.48335 32.0958 4.45071 31.3153 4.4396C30.5347 4.42849 29.3896 4.42849 27.8799 4.4396L25.4049 4.48752ZM50.3903 25C50.3903 29.9695 50.3347 33.409 50.2236 35.3188C50.3221 37.2541 50.0128 39.1886 49.3159 40.9968C48.6189 42.805 47.5498 44.4467 46.1779 45.8153C44.8059 47.1839 43.1617 48.249 41.3518 48.9415C39.5419 49.6341 37.6067 49.9386 35.6715 49.8354L35.7049 49.8375C33.7952 49.9486 30.3556 50.0042 25.3861 50.0042C20.4167 50.0042 16.9771 49.9486 15.0674 49.8375C13.132 49.936 11.1975 49.6267 9.3893 48.9298C7.58109 48.2328 5.93948 47.1637 4.57086 45.7918C3.20224 44.4198 2.13715 42.7756 1.4446 40.9657C0.75206 39.1558 0.447516 37.2206 0.550708 35.2854L0.548625 35.3188C0.437514 33.409 0.381958 29.9695 0.381958 25C0.381958 20.0306 0.437514 16.591 0.548625 14.6813C0.450149 12.7459 0.759407 10.8114 1.45636 9.00319C2.15331 7.19498 3.22241 5.55337 4.59437 4.18475C5.96633 2.81613 7.61053 1.75104 9.42044 1.0585C11.2304 0.365952 13.1656 0.0614077 15.1007 0.1646L15.0674 0.162516C16.9771 0.0514052 20.4167 -0.00415039 25.3861 -0.00415039C30.3556 -0.00415039 33.7952 0.0514052 35.7049 0.162516C37.6403 0.0640401 39.5747 0.373299 41.3829 1.07025C43.1912 1.7672 44.8328 2.8363 46.2014 4.20826C47.57 5.58022 48.6351 7.22442 49.3276 9.03433C50.0202 10.8442 50.3247 12.7795 50.2215 14.7146L50.2236 14.6813C50.3347 16.5896 50.3903 20.0292 50.3903 25Z" fill="#282B62"/>
</svg>
