<svg width="100" height="100" viewBox="0 0 100 100" fill="none" xmlns="http://www.w3.org/2000/svg">
<path d="M68.75 68.75V87.5H18.75V12.5H50V6.25H18.75C17.0924 6.25 15.5027 6.90848 14.3306 8.08058C13.1585 9.25268 12.5 10.8424 12.5 12.5V87.5C12.5 89.1576 13.1585 90.7473 14.3306 91.9194C15.5027 93.0915 17.0924 93.75 18.75 93.75H68.75C70.4076 93.75 71.9973 93.0915 73.1694 91.9194C74.3415 90.7473 75 89.1576 75 87.5V68.75H68.75Z" fill="white"/>
<path d="M92.3125 18.0001L82 7.68759C81.0654 6.77145 79.8088 6.2583 78.5 6.2583C77.1912 6.2583 75.9346 6.77145 75 7.68759L31.25 51.4376V68.7501H48.5312L92.2813 25.0001C93.1974 24.0654 93.7105 22.8089 93.7105 21.5001C93.7105 20.1913 93.1974 18.9347 92.2813 18.0001H92.3125ZM45.9375 62.5001H37.5V54.0626L67 24.5313L75.4688 33.0001L45.9375 62.5001ZM79.875 28.5938L71.4062 20.1251L78.5 13.0313L86.9688 21.5001L79.875 28.5938Z" fill="white"/>
</svg>
