<svg width="17" height="20" viewBox="0 0 17 20" fill="none" xmlns="http://www.w3.org/2000/svg">
<path d="M10.8406 13.8839V16.2388C10.8406 16.7374 10.6956 16.9866 10.4054 16.9866C10.2342 16.9866 10.0668 16.9048 9.90315 16.7411V13.3817C10.0668 13.218 10.2342 13.1362 10.4054 13.1362C10.6956 13.1362 10.8406 13.3854 10.8406 13.8839ZM14.613 13.8951V14.4085H13.6085V13.8951C13.6085 13.3891 13.7759 13.1362 14.1107 13.1362C14.4456 13.1362 14.613 13.3891 14.613 13.8951ZM3.83172 11.4621H5.02591V10.4129H1.54377V11.4621H2.71565V17.8125H3.83172V11.4621ZM7.046 17.8125H8.03931V12.2991H7.046V16.5179C6.82279 16.8304 6.61074 16.9866 6.40984 16.9866C6.27591 16.9866 6.19779 16.9085 6.17547 16.7522C6.16803 16.7299 6.16431 16.5997 6.16431 16.3616V12.2991H5.171V16.6629C5.171 17.0275 5.20077 17.2991 5.26029 17.4777C5.34957 17.753 5.56535 17.8906 5.90761 17.8906C6.26475 17.8906 6.64422 17.6637 7.046 17.2098V17.8125ZM11.834 16.1607V13.9621C11.834 13.4189 11.8005 13.0506 11.7335 12.8571C11.607 12.4405 11.3429 12.2321 10.9411 12.2321C10.5691 12.2321 10.2231 12.433 9.90315 12.8348V10.4129H8.90984V17.8125H9.90315V17.2768C10.238 17.686 10.584 17.8906 10.9411 17.8906C11.3429 17.8906 11.607 17.686 11.7335 17.2768C11.8005 17.0759 11.834 16.7039 11.834 16.1607ZM15.6063 16.0491V15.904H14.5906C14.5906 16.2835 14.5832 16.5104 14.5683 16.5848C14.5162 16.8527 14.3674 16.9866 14.1219 16.9866C13.7796 16.9866 13.6085 16.7299 13.6085 16.2165V15.2455H15.6063V14.096C15.6063 13.5082 15.5058 13.0766 15.3049 12.8013C15.0148 12.4219 14.6204 12.2321 14.1219 12.2321C13.6159 12.2321 13.2179 12.4219 12.9277 12.8013C12.7194 13.0766 12.6152 13.5082 12.6152 14.096V16.0268C12.6152 16.6146 12.7231 17.0461 12.9389 17.3214C13.229 17.7009 13.6308 17.8906 14.1442 17.8906C14.6799 17.8906 15.0817 17.6935 15.3496 17.2991C15.4835 17.0982 15.5616 16.8973 15.584 16.6964C15.5988 16.6295 15.6063 16.4137 15.6063 16.0491ZM8.82056 5.85938V3.51562C8.82056 3.00223 8.66059 2.74554 8.34065 2.74554C8.02071 2.74554 7.86074 3.00223 7.86074 3.51562V5.85938C7.86074 6.38021 8.02071 6.64062 8.34065 6.64062C8.66059 6.64062 8.82056 6.38021 8.82056 5.85938ZM16.8451 14.2411C16.8451 15.9821 16.7484 17.2842 16.5549 18.1473C16.4508 18.5863 16.235 18.9546 15.9076 19.2522C15.5802 19.5499 15.2008 19.721 14.7692 19.7656C13.4002 19.9219 11.3354 20 8.57502 20C5.8146 20 3.74987 19.9219 2.38082 19.7656C1.94928 19.721 1.56795 19.5499 1.23685 19.2522C0.90575 18.9546 0.691836 18.5863 0.59511 18.1473C0.401658 17.314 0.304932 16.0119 0.304932 14.2411C0.304932 12.5 0.401658 11.1979 0.59511 10.3348C0.699277 9.89583 0.915051 9.52753 1.24243 9.22991C1.56981 8.93229 1.953 8.75744 2.39199 8.70536C3.75359 8.55655 5.8146 8.48214 8.57502 8.48214C11.3354 8.48214 13.4002 8.55655 14.7692 8.70536C15.2008 8.75744 15.5821 8.93229 15.9132 9.22991C16.2443 9.52753 16.4582 9.89583 16.5549 10.3348C16.7484 11.1682 16.8451 12.4702 16.8451 14.2411ZM5.70672 0H6.84511L5.49466 4.45312V7.47768H4.37859V4.45312C4.27443 3.90253 4.04749 3.11384 3.69779 2.08705C3.42249 1.32068 3.18068 0.625 2.97234 0H4.15538L4.94779 2.93527L5.70672 0ZM9.83618 3.71652V5.66964C9.83618 6.27232 9.73202 6.71131 9.52368 6.98661C9.24094 7.36607 8.8466 7.5558 8.34065 7.5558C7.84213 7.5558 7.45151 7.36607 7.16877 6.98661C6.96044 6.70387 6.85627 6.26488 6.85627 5.66964V3.71652C6.85627 3.12128 6.96044 2.68601 7.16877 2.41071C7.45151 2.03125 7.84213 1.84152 8.34065 1.84152C8.8466 1.84152 9.24094 2.03125 9.52368 2.41071C9.73202 2.68601 9.83618 3.12128 9.83618 3.71652ZM13.575 1.90848V7.47768H12.5594V6.86384C12.1651 7.32515 11.7819 7.5558 11.4098 7.5558C11.0676 7.5558 10.8481 7.41815 10.7514 7.14286C10.6918 6.96429 10.6621 6.68527 10.6621 6.3058V1.90848H11.6777V6.00446C11.6777 6.25 11.6814 6.38021 11.6889 6.39509C11.7112 6.55878 11.7893 6.64062 11.9232 6.64062C12.1241 6.64062 12.3362 6.48065 12.5594 6.16071V1.90848H13.575Z" fill="white"/>
</svg>
