<svg width="42" height="50" viewBox="0 0 42 50" fill="none" xmlns="http://www.w3.org/2000/svg">
<path d="M26.7903 34.7098V40.5971C26.7903 41.8434 26.4266 42.4665 25.699 42.4665C25.2699 42.4665 24.8502 42.2619 24.4398 41.8527V33.4542C24.8502 33.045 25.2699 32.8404 25.699 32.8404C26.4266 32.8404 26.7903 33.4635 26.7903 34.7098ZM36.2486 34.7377V36.0212H33.7302V34.7377C33.7302 33.4728 34.1499 32.8404 34.9894 32.8404C35.8289 32.8404 36.2486 33.4728 36.2486 34.7377ZM9.21694 28.6551H12.2111V26.0324H3.4804V28.6551H6.41862V44.5312H9.21694V28.6551ZM17.2761 44.5312H19.7666V30.7478H17.2761V41.2946C16.7164 42.0759 16.1847 42.4665 15.681 42.4665C15.3452 42.4665 15.1494 42.2712 15.0934 41.8806C15.0747 41.8248 15.0654 41.4993 15.0654 40.904V30.7478H12.5749V41.6574C12.5749 42.5688 12.6495 43.2478 12.7988 43.6942C13.0226 44.3824 13.5637 44.7266 14.4218 44.7266C15.3173 44.7266 16.2687 44.1592 17.2761 43.0246V44.5312ZM29.2808 40.4018V34.9051C29.2808 33.5472 29.1969 32.6265 29.029 32.1429C28.7119 31.1012 28.0496 30.5804 27.0422 30.5804C26.1094 30.5804 25.2419 31.0826 24.4398 32.0871V26.0324H21.9493V44.5312H24.4398V43.192C25.2793 44.215 26.1467 44.7266 27.0422 44.7266C28.0496 44.7266 28.7119 44.215 29.029 43.192C29.1969 42.6897 29.2808 41.7597 29.2808 40.4018ZM38.7391 40.1228V39.76H36.1927C36.1927 40.7087 36.174 41.276 36.1367 41.4621C36.0061 42.1317 35.633 42.4665 35.0174 42.4665C34.1592 42.4665 33.7302 41.8248 33.7302 40.5413V38.1138H38.7391V35.24C38.7391 33.7705 38.4873 32.6916 37.9836 32.0033C37.256 31.0547 36.2673 30.5804 35.0174 30.5804C33.7488 30.5804 32.7508 31.0547 32.0232 32.0033C31.5008 32.6916 31.2397 33.7705 31.2397 35.24V40.067C31.2397 41.5365 31.5102 42.6153 32.0512 43.3036C32.7787 44.2522 33.7861 44.7266 35.0733 44.7266C36.4165 44.7266 37.4239 44.2336 38.0955 43.2478C38.4313 42.7455 38.6272 42.2433 38.6832 41.7411C38.7205 41.5737 38.7391 41.0342 38.7391 40.1228ZM21.7254 14.6484V8.78906C21.7254 7.50558 21.3243 6.86384 20.5221 6.86384C19.7199 6.86384 19.3188 7.50558 19.3188 8.78906V14.6484C19.3188 15.9505 19.7199 16.6016 20.5221 16.6016C21.3243 16.6016 21.7254 15.9505 21.7254 14.6484ZM41.8453 35.6027C41.8453 39.9554 41.6027 43.2106 41.1177 45.3683C40.8565 46.4658 40.3155 47.3865 39.4947 48.1306C38.6738 48.8746 37.7224 49.3025 36.6404 49.4141C33.2078 49.8047 28.0309 50 21.1098 50C14.1886 50 9.01173 49.8047 5.57913 49.4141C4.49712 49.3025 3.54103 48.8746 2.71086 48.1306C1.88069 47.3865 1.34435 46.4658 1.10183 45.3683C0.616788 43.285 0.374268 40.0298 0.374268 35.6027C0.374268 31.25 0.616788 27.9948 1.10183 25.8371C1.363 24.7396 1.90401 23.8188 2.72485 23.0748C3.54569 22.3307 4.50644 21.8936 5.60711 21.7634C9.02106 21.3914 14.1886 21.2054 21.1098 21.2054C28.0309 21.2054 33.2078 21.3914 36.6404 21.7634C37.7224 21.8936 38.6785 22.3307 39.5087 23.0748C40.3388 23.8188 40.8752 24.7396 41.1177 25.8371C41.6027 27.9204 41.8453 31.1756 41.8453 35.6027ZM13.9181 0H16.7724L13.3864 11.1328V18.6942H10.5881V11.1328C10.3269 9.75632 9.75794 7.7846 8.88114 5.21763C8.19089 3.30171 7.58459 1.5625 7.06224 0H10.0284L12.0153 7.33817L13.9181 0ZM24.2719 9.29129V14.1741C24.2719 15.6808 24.0107 16.7783 23.4883 17.4665C22.7794 18.4152 21.7907 18.8895 20.5221 18.8895C19.2722 18.8895 18.2928 18.4152 17.5839 17.4665C17.0615 16.7597 16.8004 15.6622 16.8004 14.1741V9.29129C16.8004 7.8032 17.0615 6.71503 17.5839 6.02679C18.2928 5.07812 19.2722 4.60379 20.5221 4.60379C21.7907 4.60379 22.7794 5.07812 23.4883 6.02679C24.0107 6.71503 24.2719 7.8032 24.2719 9.29129ZM33.6462 4.77121V18.6942H31.0997V17.1596C30.111 18.3129 29.1503 18.8895 28.2175 18.8895C27.3593 18.8895 26.809 18.5454 26.5665 17.8571C26.4172 17.4107 26.3426 16.7132 26.3426 15.7645V4.77121H28.8891V15.0112C28.8891 15.625 28.8984 15.9505 28.9171 15.9877C28.973 16.3969 29.1689 16.6016 29.5047 16.6016C30.0084 16.6016 30.5401 16.2016 31.0997 15.4018V4.77121H33.6462Z" fill="#282B62"/>
</svg>
